<?xml version="1.0" encoding="utf-8"?>
<svg viewBox="0 0 500 500" xmlns="http://www.w3.org/2000/svg">
  <path style="fill: rgb(216, 216, 216); stroke: rgb(0, 0, 0);" d="M -15.281 89.288 C -2.986 96.973 20.287 98.949 54.538 95.216 C 105.404 89.672 153.926 72.108 200.105 42.522 C 248.246 11.679 305.112 5.751 370.702 24.738 C 416.358 37.954 458.513 59.91 497.168 90.605 C 549.102 131.844 550.199 198.151 500.461 289.525 C 498.067 293.922 499.385 298.752 504.413 304.015 C 532.854 333.785 498.164 311.61 400.342 237.489 C 345.605 196.014 280.176 176.034 204.057 177.55 C 130.737 179.01 60.698 157.274 -6.06 112.342 C -12.984 107.682 -16.058 99.997 -15.281 89.288 Z" transform="matrix(0.9999999999999999, 0, 0, 1, 0, 0)"/>
</svg>