<?xml version="1.0" encoding="UTF-8" standalone="no" ?>
<!DOCTYPE svg PUBLIC "-//W3C//DTD SVG 1.1//EN" "http://www.w3.org/Graphics/SVG/1.1/DTD/svg11.dtd">
<svg xmlns="http://www.w3.org/2000/svg" xmlns:xlink="http://www.w3.org/1999/xlink" version="1.1" width="640" height="640" viewBox="0 0 640 640" xml:space="preserve">
<desc>Created with Fabric.js 5.3.0</desc>
<defs>
</defs>
<g transform="matrix(0.6958414181 0 0 1.8588550572 139.6012723811 270.3329125335)" id="IpviXr3fYtk1Xixwnu8Xy"  >
<path style="stroke: rgb(108,239,184); stroke-width: 0; stroke-dasharray: none; stroke-linecap: butt; stroke-dashoffset: 0; stroke-linejoin: miter; stroke-miterlimit: 4; fill: rgb(255,255,255); fill-rule: nonzero; opacity: 1;"  transform=" translate(0, 0)" d="M -200.04884 -200.04884 L 200.04884 -200.04884 L 200.04884 200.04884 L -200.04884 200.04884 z" stroke-linecap="round" />
</g>
<g transform="matrix(0 0.6056911951 1.5969482723 0 320.1416302028 521.0268894619)" id="peMOM2qPchh7VB6TmgW_E"  >
<path style="stroke: rgb(108,239,184); stroke-width: 0; stroke-dasharray: none; stroke-linecap: butt; stroke-dashoffset: 0; stroke-linejoin: miter; stroke-miterlimit: 4; fill: rgb(255,255,255); fill-rule: nonzero; opacity: 1;"  transform=" translate(0, 0)" d="M -200.04884 -200.04884 L 200.04884 -200.04884 L 200.04884 200.04884 L -200.04884 200.04884 z" stroke-linecap="round" />
</g>
<g transform="matrix(0.4763933138 0 0 8.866388454 46.6513259647 268.5400413291)" id="2Wjjh1zGayFU9eb2HOIis"  >
<path style="stroke: rgb(69,236,165); stroke-width: 0; stroke-dasharray: none; stroke-linecap: butt; stroke-dashoffset: 0; stroke-linejoin: miter; stroke-miterlimit: 4; fill: rgb(0,0,0); fill-rule: nonzero; opacity: 1;"  transform=" translate(0, 0)" d="M -39.07208 -39.07208 L 39.07208 -39.07208 L 39.07208 39.07208 L -39.07208 39.07208 z" stroke-linecap="round" />
</g>
<g transform="matrix(0.4763933138 0 0 2.4849675533 297.4172190536 525.3108368914)" id="RADD1pPDWIvgt0BJCmYdX"  >
<path style="stroke: rgb(69,236,165); stroke-width: 0; stroke-dasharray: none; stroke-linecap: butt; stroke-dashoffset: 0; stroke-linejoin: miter; stroke-miterlimit: 4; fill: rgb(0,0,0); fill-rule: nonzero; opacity: 1;"  transform=" translate(0, 0)" d="M -39.07208 -39.07208 L 39.07208 -39.07208 L 39.07208 39.07208 L -39.07208 39.07208 z" stroke-linecap="round" />
</g>
<g transform="matrix(0.4244695507 -0.1882579857 1.3546031974 2.3141270597 426.4158261033 525.6432555056)" id="cR3vUtskQSIFIxvgBrsLu"  >
<path style="stroke: rgb(69,236,165); stroke-width: 0; stroke-dasharray: none; stroke-linecap: butt; stroke-dashoffset: 0; stroke-linejoin: miter; stroke-miterlimit: 4; fill: rgb(0,0,0); fill-rule: nonzero; opacity: 1;"  transform=" translate(0, 0)" d="M -39.07208 -39.07208 L 39.07208 -39.07208 L 39.07208 39.07208 L -39.07208 39.07208 z" stroke-linecap="round" />
</g>
<g transform="matrix(0.4763933138 0 0 2.4849675533 558.0087055397 526.6034571131)" id="2jKYMyTlZ07nYVKuKXw-v"  >
<path style="stroke: rgb(69,236,165); stroke-width: 0; stroke-dasharray: none; stroke-linecap: butt; stroke-dashoffset: 0; stroke-linejoin: miter; stroke-miterlimit: 4; fill: rgb(0,0,0); fill-rule: nonzero; opacity: 1;"  transform=" translate(0, 0)" d="M -39.07208 -39.07208 L 39.07208 -39.07208 L 39.07208 39.07208 L -39.07208 39.07208 z" stroke-linecap="round" />
</g>
<g transform="matrix(0.3368609427 -0.2932186871 2.1200403667 1.8453770503 637.4294119636 597.7170863186)" id="upz8IDldqLafoadTNdr91"  >
<path style="stroke: rgb(69,236,165); stroke-width: 0; stroke-dasharray: none; stroke-linecap: butt; stroke-dashoffset: 0; stroke-linejoin: miter; stroke-miterlimit: 4; fill: rgb(0,0,0); fill-rule: nonzero; opacity: 1;"  transform=" translate(0, 0)" d="M -39.07208 -39.07208 L 39.07208 -39.07208 L 39.07208 39.07208 L -39.07208 39.07208 z" stroke-linecap="round" />
</g>
<g transform="matrix(0.3368609427 0.2932186871 2.1200403667 -1.8453770504 637.4294119636 454.5852469163)" id="c54Tpkr6W2NQ--Doq5dem"  >
<path style="stroke: rgb(69,236,165); stroke-width: 0; stroke-dasharray: none; stroke-linecap: butt; stroke-dashoffset: 0; stroke-linejoin: miter; stroke-miterlimit: 4; fill: rgb(0,0,0); fill-rule: nonzero; opacity: 1;"  transform=" translate(0, 0)" d="M -39.07208 -39.07208 L 39.07208 -39.07208 L 39.07208 39.07208 L -39.07208 39.07208 z" stroke-linecap="round" />
</g>
<g transform="matrix(0.4763933138 0 0 2.4849675533 481.4184704415 525.6432555056)" id="1qCcpkwVHbV2SgXycC7II"  >
<path style="stroke: rgb(69,236,165); stroke-width: 0; stroke-dasharray: none; stroke-linecap: butt; stroke-dashoffset: 0; stroke-linejoin: miter; stroke-miterlimit: 4; fill: rgb(0,0,0); fill-rule: nonzero; opacity: 1;"  transform=" translate(0, 0)" d="M -39.07208 -39.07208 L 39.07208 -39.07208 L 39.07208 39.07208 L -39.07208 39.07208 z" stroke-linecap="round" />
</g>
<g transform="matrix(0.4763933138 0 0 2.4849675533 371.8719288467 525.3108330492)" id="ofXFODTnG8jg8zcJk-BPK"  >
<path style="stroke: rgb(69,236,165); stroke-width: 0; stroke-dasharray: none; stroke-linecap: butt; stroke-dashoffset: 0; stroke-linejoin: miter; stroke-miterlimit: 4; fill: rgb(0,0,0); fill-rule: nonzero; opacity: 1;"  transform=" translate(0, 0)" d="M -39.07208 -39.07208 L 39.07208 -39.07208 L 39.07208 39.07208 L -39.07208 39.07208 z" stroke-linecap="round" />
</g>
<g transform="matrix(0 0.414673844 -2.7198820048 0 134.1500611205 606.2015144829)" id="C_Ag0cKpgY7N2dRlItdi5"  >
<path style="stroke: rgb(69,236,165); stroke-width: 0; stroke-dasharray: none; stroke-linecap: butt; stroke-dashoffset: 0; stroke-linejoin: miter; stroke-miterlimit: 4; fill: rgb(0,0,0); fill-rule: nonzero; opacity: 1;"  transform=" translate(0, 0)" d="M -39.07208 -39.07208 L 39.07208 -39.07208 L 39.07208 39.07208 L -39.07208 39.07208 z" stroke-linecap="round" />
</g>
</svg>